<?xml version="1.0" encoding="UTF-8"?>
<!DOCTYPE svg PUBLIC "-//W3C//DTD SVG 1.1//EN" "http://www.w3.org/Graphics/SVG/1.1/DTD/svg11.dtd">
<!-- Creator: CorelDRAW X6 -->
<svg xmlns="http://www.w3.org/2000/svg" xml:space="preserve" width="30.718mm" height="41.7738mm" version="1.1" style="shape-rendering:geometricPrecision; text-rendering:geometricPrecision; image-rendering:optimizeQuality; fill-rule:evenodd; clip-rule:evenodd"
viewBox="0 0 3072 4177"
 xmlns:xlink="http://www.w3.org/1999/xlink">
 <defs>
  <style type="text/css">
   <![CDATA[
    .fil1 {fill:#FEFEFE}
    .fil0 {fill:black}
    .fil2 {fill:#D9534F}
   ]]>
  </style>
 </defs>
 <g id="Ebene_x0020_1">
  <metadata id="CorelCorpID_0Corel-Layer"/>
  <path class="fil0" d="M524 2147l-524 0c95,287 280,535 524,720l0 296c0,379 307,687 686,687l109 0 0 327 433 0 0 -327 110 0c378,0 686,-308 686,-687l0 -296c243,-185 429,-433 524,-720l-524 0 0 -741c243,-185 429,-433 524,-719l-524 0c0,-380 -307,-687 -686,-687l-652 0c-379,0 -686,307 -686,687l-524 0c95,286 280,534 524,719l0 741z"/>
  <path class="fil1" d="M1535 3238c-277,0 -503,-226 -503,-504 0,-278 226,-504 503,-504 279,0 504,226 504,504 0,278 -225,504 -504,504z"/>
  <path class="fil2" d="M1535 1776c-277,0 -503,-224 -503,-503 0,-278 226,-503 503,-503 279,0 504,225 504,503 0,279 -225,503 -504,503z"/>
  <g id="_233107920">
  </g>
  <g id="_233108432">
  </g>
  <g id="_233106768">
  </g>
  <g id="_233108528">
  </g>
  <g id="_234661968">
  </g>
  <g id="_234662576">
  </g>
  <g id="_234661936">
  </g>
  <g id="_234662928">
  </g>
  <g id="_234662064">
  </g>
  <g id="_234662864">
  </g>
  <g id="_234661520">
  </g>
  <g id="_234660944">
  </g>
  <g id="_234660976">
  </g>
  <g id="_234659408">
  </g>
  <g id="_234660272">
  </g>
 </g>
</svg>
