<?xml version="1.0" encoding="UTF-8"?>
<!DOCTYPE svg PUBLIC "-//W3C//DTD SVG 1.1//EN" "http://www.w3.org/Graphics/SVG/1.1/DTD/svg11.dtd">
<!-- Creator: CorelDRAW X6 -->
<svg xmlns="http://www.w3.org/2000/svg" xml:space="preserve" width="3.7184mm" height="5.0567mm" version="1.1" style="shape-rendering:geometricPrecision; text-rendering:geometricPrecision; image-rendering:optimizeQuality; fill-rule:evenodd; clip-rule:evenodd"
viewBox="0 0 372 506"
 xmlns:xlink="http://www.w3.org/1999/xlink">
 <defs>
  <style type="text/css">
   <![CDATA[
    .fil2 {fill:#FEFEFE}
    .fil0 {fill:black}
    .fil1 {fill:#5CB85C}
   ]]>
  </style>
 </defs>
 <g id="Ebene_x0020_1">
  <metadata id="CorelCorpID_0Corel-Layer"/>
  <path class="fil0" d="M63 260l-63 0c11,35 34,65 63,87l0 36c0,46 38,83 83,83l14 0 0 40 52 0 0 -40 13 0c46,0 83,-37 83,-83l0 -36c30,-22 52,-52 64,-87l-64 0 0 -90c30,-22 52,-52 64,-87l-64 0c0,-46 -37,-83 -83,-83l-79 0c-45,0 -83,37 -83,83l-63 0c11,35 34,65 63,87l0 90z"/>
  <path class="fil1" d="M186 392c-34,0 -61,-27 -61,-61 0,-34 27,-61 61,-61 34,0 61,27 61,61 0,34 -27,61 -61,61z"/>
  <path class="fil2" d="M186 215c-34,0 -61,-27 -61,-61 0,-34 27,-61 61,-61 34,0 61,27 61,61 0,34 -27,61 -61,61z"/>
  <g id="_234578112">
  </g>
  <g id="_234577888">
  </g>
  <g id="_234576512">
  </g>
  <g id="_234578144">
  </g>
  <g id="_234576608">
  </g>
  <g id="_234575584">
  </g>
  <g id="_234575104">
  </g>
  <g id="_234576192">
  </g>
  <g id="_234574816">
  </g>
  <g id="_234574752">
  </g>
  <g id="_233660096">
  </g>
  <g id="_233659424">
  </g>
  <g id="_233659456">
  </g>
  <g id="_233659936">
  </g>
  <g id="_233660032">
  </g>
 </g>
</svg>
