<?xml version="1.0" encoding="UTF-8" standalone="no"?>
<!-- Created with Inkscape (http://www.inkscape.org/) -->
<svg
   xmlns:dc="http://purl.org/dc/elements/1.1/"
   xmlns:cc="http://creativecommons.org/ns#"
   xmlns:rdf="http://www.w3.org/1999/02/22-rdf-syntax-ns#"
   xmlns:svg="http://www.w3.org/2000/svg"
   xmlns="http://www.w3.org/2000/svg"
   xmlns:sodipodi="http://sodipodi.sourceforge.net/DTD/sodipodi-0.dtd"
   xmlns:inkscape="http://www.inkscape.org/namespaces/inkscape"
   width="289.32901"
   height="486.20605"
   id="svg2"
   sodipodi:version="0.32"
   inkscape:version="0.46"
   version="1.0"
   sodipodi:docname="traffic semaphore silhouette green.svg"
   inkscape:output_extension="org.inkscape.output.svg.inkscape">
  <defs
     id="defs4">
    <inkscape:perspective
       sodipodi:type="inkscape:persp3d"
       inkscape:vp_x="0 : 526.18109 : 1"
       inkscape:vp_y="0 : 1000 : 0"
       inkscape:vp_z="744.09448 : 526.18109 : 1"
       inkscape:persp3d-origin="372.04724 : 350.78739 : 1"
       id="perspective10" />
    <inkscape:perspective
       id="perspective2400"
       inkscape:persp3d-origin="372.04724 : 350.78739 : 1"
       inkscape:vp_z="744.09448 : 526.18109 : 1"
       inkscape:vp_y="0 : 1000 : 0"
       inkscape:vp_x="0 : 526.18109 : 1"
       sodipodi:type="inkscape:persp3d" />
  </defs>
  <sodipodi:namedview
     id="base"
     pagecolor="#ffffff"
     bordercolor="#666666"
     borderopacity="1.0"
     inkscape:pageopacity="0.0"
     inkscape:pageshadow="2"
     inkscape:zoom="0.35"
     inkscape:cx="-263.45772"
     inkscape:cy="171.27933"
     inkscape:document-units="px"
     inkscape:current-layer="layer1"
     showgrid="false"
     inkscape:window-width="1280"
     inkscape:window-height="719"
     inkscape:window-x="0"
     inkscape:window-y="22" />
  <metadata
     id="metadata7">
    <rdf:RDF>
      <cc:Work
         rdf:about="">
        <dc:format>image/svg+xml</dc:format>
        <dc:type
           rdf:resource="http://purl.org/dc/dcmitype/StillImage" />
      </cc:Work>
    </rdf:RDF>
  </metadata>
  <g
     inkscape:label="Camada 1"
     inkscape:groupmode="layer"
     id="layer1"
     transform="translate(1159.4237,-455.89813)">
    <g
       id="g3235">
      <rect
         ry="45.744564"
         y="455.89813"
         x="-1085.0884"
         height="307.83826"
         width="140.65842"
         id="rect2383"
         style="fill:#000000;fill-opacity:1;stroke:none;stroke-width:4;stroke-miterlimit:4;stroke-dasharray:none;stroke-dashoffset:0;stroke-opacity:1" />
      <path
         transform="matrix(0.6332765,0,0,0.4784756,-1227.1415,534.1401)"
         d="M 404.06101,351.31631 A 68.690376,90.913727 0 1 1 266.68026,351.31631 A 68.690376,90.913727 0 1 1 404.06101,351.31631 z"
         sodipodi:ry="90.913727"
         sodipodi:rx="68.690376"
         sodipodi:cy="351.31631"
         sodipodi:cx="335.37064"
         id="path2391"
         style="fill:#00ff00;fill-opacity:1;stroke:none;stroke-width:4;stroke-miterlimit:4;stroke-dasharray:none;stroke-dashoffset:0;stroke-opacity:1"
         sodipodi:type="arc" />
      <path
         transform="matrix(0.6332765,0,0,0.4784756,-1227.1415,441.72098)"
         d="M 404.06101,351.31631 A 68.690376,90.913727 0 1 1 266.68026,351.31631 A 68.690376,90.913727 0 1 1 404.06101,351.31631 z"
         sodipodi:ry="90.913727"
         sodipodi:rx="68.690376"
         sodipodi:cy="351.31631"
         sodipodi:cx="335.37064"
         id="path2435"
         style="fill:#ffffff;fill-opacity:1;stroke:none;stroke-width:4;stroke-miterlimit:4;stroke-dasharray:none;stroke-dashoffset:0;stroke-opacity:1"
         sodipodi:type="arc" />
      <path
         transform="matrix(0.6332765,0,0,0.4784756,-1227.1415,349.30185)"
         d="M 404.06101,351.31631 A 68.690376,90.913727 0 1 1 266.68026,351.31631 A 68.690376,90.913727 0 1 1 404.06101,351.31631 z"
         sodipodi:ry="90.913727"
         sodipodi:rx="68.690376"
         sodipodi:cy="351.31631"
         sodipodi:cx="335.37064"
         id="path2437"
         style="fill:#ffffff;fill-opacity:1;stroke:none;stroke-width:4;stroke-miterlimit:4;stroke-dasharray:none;stroke-dashoffset:0;stroke-opacity:1"
         sodipodi:type="arc" />
      <path
         sodipodi:nodetypes="cssscsss"
         style="fill:#000000;fill-opacity:1"
         d="M -1108.4957,740.83842 C -1109.9924,740.23527 -1122.4385,724.50974 -1136.163,705.9162 C -1159.205,674.69952 -1160.9312,671.6944 -1158.6971,666.68765 C -1156.3059,661.32867 -1155.9577,662.97477 -1128.7778,662.97477 L -1096.1303,662.97477 L -1096.1303,702.14376 C -1096.1303,735.12059 -1096.5383,737.76314 -1100.279,740.03283 C -1103.663,742.08606 -1105.1357,742.19246 -1108.4957,740.83842 z"
         id="path2432" />
      <path
         sodipodi:nodetypes="cssscsss"
         style="fill:#000000;fill-opacity:1"
         d="M -1108.4957,648.4193 C -1109.9924,647.81615 -1122.4385,632.09062 -1136.163,613.49708 C -1159.205,582.2804 -1160.9312,579.27528 -1158.6971,574.26853 C -1156.3059,568.90955 -1155.9577,570.55565 -1128.7778,570.55565 L -1096.1303,570.55565 L -1096.1303,609.72464 C -1096.1303,642.70147 -1096.5383,645.34402 -1100.279,647.61371 C -1103.663,649.66694 -1105.1357,649.77334 -1108.4957,648.4193 z"
         id="path2441" />
      <path
         sodipodi:nodetypes="cssscsss"
         style="fill:#000000;fill-opacity:1"
         d="M -1108.4957,556.00017 C -1109.9924,555.39702 -1122.4385,539.67149 -1136.163,521.07795 C -1159.205,489.86127 -1160.9312,486.85615 -1158.6971,481.8494 C -1156.3059,476.49042 -1155.9577,478.13652 -1128.7778,478.13652 L -1096.1303,478.13652 L -1096.1303,517.30551 C -1096.1303,550.28234 -1096.5383,552.92489 -1100.279,555.19458 C -1103.663,557.24781 -1105.1357,557.35421 -1108.4957,556.00017 z"
         id="path2443" />
      <g
         style="fill:#000000;fill-opacity:1"
         transform="translate(-32,-115.2555)"
         id="g2451">
        <path
           id="path2445"
           d="M -889.02265,856.09392 C -887.52595,855.49077 -875.07985,839.76524 -861.35535,821.1717 C -838.31335,789.95502 -836.58715,786.9499 -838.82125,781.94315 C -841.21245,776.58417 -841.56065,778.23027 -868.74055,778.23027 L -901.38805,778.23027 L -901.38805,817.39926 C -901.38805,850.37609 -900.98005,853.01864 -897.23935,855.28833 C -893.85535,857.34156 -892.38265,857.44796 -889.02265,856.09392 z"
           style="fill:#000000;fill-opacity:1"
           sodipodi:nodetypes="cssscsss" />
        <path
           id="path2447"
           d="M -889.02265,763.6748 C -887.52595,763.07165 -875.07985,747.34612 -861.35535,728.75258 C -838.31335,697.5359 -836.58715,694.53078 -838.82125,689.52403 C -841.21245,684.16505 -841.56065,685.81115 -868.74055,685.81115 L -901.38805,685.81115 L -901.38805,724.98014 C -901.38805,757.95697 -900.98005,760.59952 -897.23935,762.86921 C -893.85535,764.92244 -892.38265,765.02884 -889.02265,763.6748 z"
           style="fill:#000000;fill-opacity:1"
           sodipodi:nodetypes="cssscsss" />
        <path
           id="path2449"
           d="M -889.02265,671.25567 C -887.52595,670.65252 -875.07985,654.92699 -861.35535,636.33345 C -838.31335,605.11677 -836.58715,602.11165 -838.82125,597.1049 C -841.21245,591.74592 -841.56065,593.39202 -868.74055,593.39202 L -901.38805,593.39202 L -901.38805,632.56101 C -901.38805,665.53784 -900.98005,668.18039 -897.23935,670.45008 C -893.85535,672.50331 -892.38265,672.60971 -889.02265,671.25567 z"
           style="fill:#000000;fill-opacity:1"
           sodipodi:nodetypes="cssscsss" />
      </g>
      <rect
         ry="12.428765"
         y="774.67712"
         x="-1053.7737"
         height="167.42705"
         width="78.028961"
         id="rect3244"
         style="fill:#000000;fill-opacity:1;stroke:none;stroke-width:4;stroke-miterlimit:4;stroke-dasharray:none;stroke-dashoffset:0;stroke-opacity:1" />
    </g>
  </g>
</svg>
