<?xml version="1.0" encoding="iso-8859-1"?>
<!-- Generator: Adobe Illustrator 16.0.0, SVG Export Plug-In . SVG Version: 6.00 Build 0)  -->
<!DOCTYPE svg PUBLIC "-//W3C//DTD SVG 1.1//EN" "http://www.w3.org/Graphics/SVG/1.1/DTD/svg11.dtd">
<svg version="1.1" id="Capa_1" xmlns="http://www.w3.org/2000/svg" xmlns:xlink="http://www.w3.org/1999/xlink" x="0px" y="0px"
	 width="23.668px" height="23.669px" viewBox="0 0 23.668 23.669" style="enable-background:new 0 0 23.668 23.669;"
	 xml:space="preserve">
<g>
	<path d="M16.465,13.133v-1.269c1.113-0.843,1.962-1.979,2.395-3.288h-2.396V7.309c1.114-0.845,1.963-1.98,2.396-3.289h-2.396V3.142
		c0-1.735-1.406-3.142-3.14-3.142h-2.98C8.61,0,7.203,1.406,7.203,3.142V4.02H4.807c0.434,1.309,1.28,2.444,2.396,3.289v1.267H4.807
		c0.434,1.31,1.28,2.445,2.396,3.29v1.267H4.807c0.434,1.309,1.28,2.445,2.396,3.29v2.604c0,1.734,1.406,3.143,3.141,3.143h0.499
		v1.499h1.981V22.17h0.5c1.732,0,3.141-1.406,3.141-3.143v-2.604c1.113-0.845,1.963-1.981,2.396-3.29H16.465z M11.832,19.749
		c-1.271,0-2.304-1.033-2.304-2.304c0-1.273,1.032-2.307,2.304-2.307c1.273,0,2.306,1.032,2.306,2.307
		C14.138,18.716,13.107,19.749,11.832,19.749z M11.832,13.391c-1.271,0-2.304-1.031-2.304-2.305c0-1.273,1.033-2.306,2.304-2.306
		c1.273,0,2.306,1.032,2.306,2.306C14.138,12.359,13.107,13.391,11.832,13.391z M11.832,7.028c-1.271,0-2.304-1.029-2.304-2.304
		c0-1.271,1.032-2.303,2.304-2.303c1.273,0,2.306,1.031,2.306,2.303C14.138,5.999,13.107,7.028,11.832,7.028z"/>
</g>
<g>
</g>
<g>
</g>
<g>
</g>
<g>
</g>
<g>
</g>
<g>
</g>
<g>
</g>
<g>
</g>
<g>
</g>
<g>
</g>
<g>
</g>
<g>
</g>
<g>
</g>
<g>
</g>
<g>
</g>
</svg>
